<svg xmlns="http://www.w3.org/2000/svg" xmlns:xlink="http://www.w3.org/1999/xlink" version="1.1" viewBox="6 3 24 30" height="36" width="28"><g id="surface1"><path style=" stroke:none;fill-rule:evenodd;fill:#1c75bc;fill-opacity:1;" d="M 16.9375 32.558594 L 18 31.5 Z M 18 31.5 L 19.0625 32.558594 C 18.78125 32.839844 18.398438 33 18 33 C 17.601562 33 17.21875 32.839844 16.9375 32.558594 L 16.808594 32.429688 C 16.28125 31.882812 15.761719 31.332031 15.25 30.769531 C 13.964844 29.363281 12.738281 27.90625 11.566406 26.40625 C 10.226562 24.683594 8.859375 22.734375 7.820312 20.804688 C 6.800781 18.917969 6 16.871094 6 15 C 6 8.191406 11.386719 3 18 3 C 24.613281 3 30 8.191406 30 15 C 30 16.871094 29.199219 18.917969 28.179688 20.804688 C 27.140625 22.734375 25.773438 24.683594 24.433594 26.40625 C 22.796875 28.507812 21.046875 30.515625 19.191406 32.429688 L 19.0625 32.558594 Z M 18 19.5 C 20.484375 19.5 22.5 17.484375 22.5 15 C 22.5 12.515625 20.484375 10.5 18 10.5 C 15.515625 10.5 13.5 12.515625 13.5 15 C 13.5 17.484375 15.515625 19.5 18 19.5 Z M 18 19.5 " /></g></svg>