<?xml version="1.0" encoding="UTF-8"?>
<svg xmlns="http://www.w3.org/2000/svg" xmlns:xlink="http://www.w3.org/1999/xlink" width="32px" height="32px" viewBox="0 0 32 32" version="1.1">
<g id="surface1">
<path style=" stroke:none;fill-rule:nonzero;fill:rgb(7.058824%,23.921569%,39.215686%);fill-opacity:1;" d="M 31.28125 5.488281 L 31.265625 5.460938 C 30.71875 4.210938 29.90625 3.085938 28.835938 2.144531 C 28.832031 2.140625 28.78125 2.101562 28.78125 2.101562 C 26.945312 0.511719 24.703125 -0.148438 22.113281 0.148438 C 18.765625 0.535156 16.832031 3.199219 16.492188 3.75 C 16.464844 3.789062 16.4375 3.835938 16.40625 3.882812 C 15.285156 2.890625 12.886719 1.238281 12.886719 1.238281 C 12.136719 0.757812 9.214844 -0.636719 6.042969 0.417969 C 3.546875 1.246094 1.785156 2.808594 0.804688 5.058594 C -0.488281 8.03125 -0.214844 11.242188 1.566406 14.183594 C 1.566406 14.183594 1.597656 14.238281 1.597656 14.238281 C 3.4375 17.453125 6.089844 21.296875 12.191406 27.800781 C 14.484375 30.242188 16.160156 31.96875 16.160156 31.96875 L 16.835938 31.441406 C 17.476562 30.941406 18.296875 29.9375 18.714844 28.566406 C 19.585938 29.050781 20.683594 29.65625 20.683594 29.65625 L 21.167969 29.019531 C 21.230469 28.945312 22.320312 27.492188 22.59375 25.699219 C 22.699219 25.730469 25.644531 26.621094 25.644531 26.621094 L 26.023438 26.039062 C 26.074219 25.964844 27.238281 24.136719 26.761719 22.015625 C 26.644531 21.496094 26.441406 21.003906 26.15625 20.550781 C 27.515625 19.015625 29.902344 15.886719 29.902344 15.886719 C 30.683594 14.746094 31.261719 13.714844 31.476562 12.910156 C 32.199219 10.242188 32.214844 7.644531 31.285156 5.492188 Z M 31.28125 5.488281 "/>
<path style=" stroke:none;fill-rule:nonzero;fill:rgb(98.431373%,74.901961%,19.607843%);fill-opacity:1;" d="M 29.816406 6.882812 L 29.71875 6.84375 C 29.265625 6.664062 28.847656 6.578125 28.457031 6.574219 C 27.289062 6.554688 26.363281 7.257812 25.40625 8.300781 L 24.777344 8.992188 L 23.386719 7.730469 L 24.019531 7.039062 C 24.648438 6.351562 26.078125 4.796875 28.242188 4.710938 C 28.382812 4.707031 28.53125 4.707031 28.683594 4.714844 C 28.414062 4.355469 28.105469 4.019531 27.765625 3.703125 C 27.765625 3.703125 27.101562 3.320312 26.421875 3.316406 C 25.191406 3.308594 23.859375 4.117188 23.167969 4.871094 L 21.8125 6.230469 L 20.480469 4.910156 L 21.808594 3.578125 C 22.386719 2.949219 23.15625 2.386719 24.007812 2 C 23.746094 1.976562 23.480469 1.964844 23.210938 1.964844 C 22.9375 1.96875 22.664062 1.984375 22.378906 2.015625 C 19.90625 2.300781 18.414062 4.316406 18.171875 4.707031 C 18.171875 4.707031 18.0625 4.894531 17.902344 5.179688 C 19.878906 7.027344 22.917969 9.8125 22.953125 9.84375 L 23.613281 10.449219 L 23.039062 11.132812 C 20.9375 13.628906 18.617188 14.308594 15.742188 13.28125 C 14.371094 12.789062 12.535156 11.53125 11.269531 10.589844 C 11.269531 10.589844 11.195312 10.546875 11.164062 10.570312 C 11.128906 10.59375 11.132812 10.6875 11.140625 10.71875 C 11.523438 12.882812 14.4375 14.371094 18.863281 16.21875 L 19.738281 16.5625 C 20.910156 17.019531 22 17.234375 22.992188 17.242188 C 25.175781 17.257812 26.875 16.355469 27.894531 15.253906 L 28.414062 14.679688 C 29.027344 13.890625 29.484375 12.953125 29.648438 12.359375 C 30.191406 10.386719 30.339844 8.484375 29.816406 6.878906 Z M 29.816406 6.882812 "/>
<path style=" stroke:none;fill-rule:nonzero;fill:rgb(78.823529%,57.254902%,18.039216%);fill-opacity:1;" d="M 29.96875 10.949219 C 29.234375 11.804688 28.183594 12.796875 26.914062 13.59375 C 24.941406 14.835938 23.550781 14.34375 21.972656 13.625 C 23.34375 12.363281 24.535156 11.246094 24.535156 11.246094 L 23.605469 10.449219 L 23.046875 11.113281 C 20.9375 13.625 18.621094 14.320312 15.746094 13.273438 C 14.398438 12.785156 12.578125 11.5625 11.3125 10.617188 C 11.292969 10.597656 11.21875 10.535156 11.164062 10.550781 C 11.105469 10.566406 11.117188 10.691406 11.121094 10.714844 C 11.519531 12.902344 14.453125 14.390625 18.867188 16.257812 L 19.738281 16.605469 C 20.007812 16.710938 20.273438 16.800781 20.535156 16.878906 C 20.613281 16.90625 21.132812 17.042969 21.308594 17.082031 C 21.394531 17.101562 21.914062 17.191406 22.082031 17.210938 C 22.15625 17.222656 22.773438 17.277344 23 17.28125 C 24.320312 17.242188 25.457031 16.972656 26.371094 16.445312 C 26.785156 16.207031 27.566406 15.769531 28.425781 14.6875 C 29.40625 13.457031 29.769531 12.246094 29.96875 10.949219 Z M 29.96875 10.949219 "/>
<path style=" stroke:none;fill-rule:nonzero;fill:rgb(32.941176%,65.490196%,85.490196%);fill-opacity:1;" d="M 6.699219 2.242188 C 4.746094 2.890625 3.375 4.097656 2.621094 5.828125 C 1.355469 8.734375 1.964844 11.882812 4.34375 14.695312 C 6.761719 17.554688 12.175781 20.277344 21.382812 23.261719 C 23.03125 23.796875 24.070312 24.121094 24.683594 24.3125 C 24.867188 23.820312 25.039062 23.09375 24.867188 22.335938 C 24.671875 21.5 24.082031 20.769531 23.113281 20.15625 C 21.785156 19.523438 20.347656 18.933594 18.957031 18.359375 C 13.398438 16.074219 7.648438 13.707031 9.449219 8.480469 L 9.890625 7.203125 L 10.9375 8.0625 C 11.882812 8.839844 14.6875 10.980469 16.300781 11.558594 C 18.148438 12.222656 19.535156 11.957031 20.914062 10.628906 C 19.71875 9.53125 17.269531 7.277344 15.882812 5.964844 C 14.71875 4.871094 12.894531 3.375 12.128906 2.988281 L 12.050781 2.949219 C 11.167969 2.496094 9.101562 1.441406 6.699219 2.242188 Z M 6.699219 2.242188 "/>
<path style=" stroke:none;fill-rule:nonzero;fill:rgb(10.588235%,45.882353%,73.72549%);fill-opacity:1;" d="M 5 12.140625 C 3.429688 10.074219 3.085938 6.585938 3.019531 5.054688 C 2.867188 5.304688 2.710938 5.582031 2.589844 5.859375 C 1.324219 8.765625 1.960938 11.921875 4.335938 14.730469 C 6.757812 17.59375 12.171875 20.316406 21.378906 23.300781 C 23.027344 23.835938 24.066406 24.160156 24.679688 24.347656 C 24.820312 23.964844 24.953125 23.457031 24.9375 22.878906 C 22.96875 22.085938 14.84375 18.800781 12.714844 17.773438 C 10.289062 16.601562 7.128906 15.359375 4.996094 12.140625 Z M 5 12.140625 "/>
<path style=" stroke:none;fill-rule:nonzero;fill:rgb(10.588235%,45.882353%,73.72549%);fill-opacity:1;" d="M 12.015625 7.320312 C 10.820312 6.632812 9.890625 7.207031 9.890625 7.207031 L 10.933594 8.074219 C 11.878906 8.851562 14.679688 10.992188 16.296875 11.570312 C 18.144531 12.234375 19.535156 11.960938 20.910156 10.628906 C 20.191406 10.859375 19.496094 10.933594 18.832031 10.886719 C 15.941406 10.671875 13.609375 8.234375 12.015625 7.320312 Z M 12.015625 7.320312 "/>
<path style=" stroke:none;fill-rule:nonzero;fill:rgb(32.941176%,65.490196%,85.490196%);fill-opacity:1;" d="M 10.601562 23.175781 C 11.503906 24.183594 12.503906 25.269531 13.621094 26.445312 C 14.863281 27.753906 15.742188 28.679688 16.289062 29.253906 C 16.589844 28.847656 16.921875 28.253906 17.066406 27.484375 C 16.734375 27.285156 16.375 27.0625 15.980469 26.816406 C 13.949219 25.550781 12.171875 24.347656 10.605469 23.175781 Z M 10.601562 23.175781 "/>
<path style=" stroke:none;fill-rule:nonzero;fill:rgb(32.941176%,65.490196%,85.490196%);fill-opacity:1;" d="M 19.613281 24.671875 C 18.988281 24.460938 18.375 24.253906 17.785156 24.046875 C 16.566406 23.621094 15.414062 23.195312 14.347656 22.777344 C 13.425781 22.414062 12.570312 22.054688 11.757812 21.695312 C 11.757812 21.699219 11.761719 21.699219 11.761719 21.703125 C 11.761719 21.703125 11.765625 21.703125 11.765625 21.703125 C 12.300781 22.101562 12.867188 22.511719 13.476562 22.933594 C 13.484375 22.9375 13.496094 22.945312 13.503906 22.953125 C 13.695312 23.085938 13.890625 23.21875 14.089844 23.355469 C 14.113281 23.371094 14.140625 23.386719 14.164062 23.40625 C 14.355469 23.535156 14.554688 23.664062 14.75 23.800781 C 14.777344 23.816406 14.804688 23.832031 14.828125 23.851562 C 15.472656 24.277344 16.148438 24.710938 16.867188 25.164062 C 16.875 25.167969 16.882812 25.171875 16.886719 25.175781 C 17.394531 25.472656 18.992188 26.464844 19.003906 26.472656 C 19.007812 26.476562 19.011719 26.480469 19.019531 26.480469 C 19.351562 26.679688 19.636719 26.847656 19.878906 26.988281 C 19.960938 27.039062 20.039062 27.085938 20.113281 27.125 C 20.113281 27.125 20.113281 27.121094 20.113281 27.121094 C 20.152344 27.046875 20.195312 26.972656 20.234375 26.890625 C 20.25 26.855469 20.269531 26.816406 20.289062 26.777344 C 20.308594 26.734375 20.328125 26.691406 20.351562 26.644531 C 20.375 26.589844 20.398438 26.535156 20.421875 26.480469 C 20.433594 26.453125 20.441406 26.425781 20.453125 26.398438 C 20.578125 26.078125 20.6875 25.722656 20.738281 25.359375 C 20.738281 25.351562 20.738281 25.347656 20.742188 25.339844 C 20.753906 25.246094 20.765625 25.152344 20.769531 25.054688 C 20.375 24.929688 19.992188 24.800781 19.613281 24.671875 Z M 19.613281 24.671875 "/>
</g>
</svg>
