<?xml version="1.0" encoding="UTF-8"?>
<svg xmlns="http://www.w3.org/2000/svg" xmlns:xlink="http://www.w3.org/1999/xlink" width="32px" height="32px" viewBox="0 0 32 32" version="1.1">
<g id="surface1">
<path style=" stroke:none;fill-rule:evenodd;fill:rgb(0%,0%,0%);fill-opacity:1;" d="M 15.054688 28.941406 L 16 28 Z M 16 28 L 16.945312 28.941406 C 16.695312 29.191406 16.355469 29.332031 16 29.332031 C 15.644531 29.332031 15.304688 29.191406 15.054688 28.941406 L 15.023438 28.910156 L 14.941406 28.824219 C 14.472656 28.339844 14.007812 27.847656 13.554688 27.351562 C 12.414062 26.101562 11.320312 24.808594 10.28125 23.472656 C 9.089844 21.941406 7.875 20.207031 6.949219 18.496094 C 6.046875 16.816406 5.332031 14.996094 5.332031 13.332031 C 5.332031 7.28125 10.121094 2.667969 16 2.667969 C 21.878906 2.667969 26.667969 7.28125 26.667969 13.332031 C 26.667969 14.996094 25.953125 16.816406 25.050781 18.492188 C 24.125 20.207031 22.910156 21.941406 21.71875 23.472656 C 20.261719 25.339844 18.707031 27.125 17.058594 28.824219 L 16.976562 28.910156 L 16.945312 28.941406 Z M 16 17.332031 C 18.210938 17.332031 20 15.542969 20 13.332031 C 20 11.125 18.210938 9.332031 16 9.332031 C 13.789062 9.332031 12 11.125 12 13.332031 C 12 15.542969 13.789062 17.332031 16 17.332031 Z M 16 17.332031 "/>
</g>
</svg>
